<svg width="129" height="53" viewBox="0 0 129 53" fill="none" xmlns="http://www.w3.org/2000/svg">
<path d="M65.194 14.8855C64.881 14.5556 64.7163 14.4845 64.4898 14.3759C63.444 13.8747 62.1717 14.213 57.7164 15.9214C57.6341 15.9506 57.5559 15.9799 57.4365 16.0133C56.2588 16.3307 54.8506 15.9548 54.1671 15.1069C53.6895 14.5138 53.6606 13.8037 53.6442 13.5573C53.5083 11.6902 51.8654 8.30688 49.226 5.8592C49.5966 5.29532 49.8107 4.62701 49.8066 3.92947C49.7901 1.99138 48.2296 0.479329 46.2614 0.500214C44.7337 0.516921 43.4697 1.52356 43.0497 2.93118C41.7691 2.79334 40.435 2.86017 39.0968 3.16927C35.6051 3.96288 33.0398 6.0597 31.2652 9.17986C27.5388 15.7126 23.8124 22.2494 20.1066 28.7947C19.5507 29.7763 19.4272 28.9659 17.2325 26.5224C17.2243 26.5141 17.216 26.5057 17.2078 26.5016C15.4331 25.3613 15.2643 24.9644 16.0384 24.3546C17.3519 23.3271 18.4225 22.0531 19.4313 20.729C22.7336 16.3934 24.2982 11.4479 24.4629 6.0054C24.4794 5.39139 24.3559 5.22014 23.7547 5.57517C20.3618 7.58427 17.6154 10.2784 15.5361 13.6492C13.7984 16.4644 12.5838 19.501 12.1555 22.8217C12.0608 23.561 11.8302 23.9495 10.9779 23.9745C10.4632 23.9912 9.72204 24.3713 8.2356 25.1399C6.00799 26.2969 6.15623 28.3937 3.33569 30.361C1.96866 31.3134 0.30104 31.9566 0.0457508 33.406C-0.00366002 33.6733 -0.00777765 33.9365 0.00869263 34.02C0.185748 35.1227 0.688092 36.05 1.40867 36.8728C2.84982 38.5186 4.73566 38.9947 6.79857 38.9947C12.5879 38.9947 18.3772 38.9947 24.1665 38.9947C25.1176 38.9947 25.1753 39.1075 24.7018 39.9304C23.8741 41.3756 23.0506 42.825 22.2271 44.2702C20.8271 46.7179 19.423 49.1655 18.0313 51.6174C17.5948 52.3859 17.6442 52.4569 18.5172 52.4611C19.2872 52.4695 20.0613 52.4235 20.8271 52.4737C21.1318 52.4945 21.4036 52.4611 21.6506 52.3776C22.12 52.2189 22.4247 51.9223 22.5812 51.7552C23.133 51.1705 27.5964 46.1331 33.6739 39.2036C36.8198 35.436 39.0062 32.579 39.3809 31.8814C39.7227 31.2424 39.6815 30.6618 39.6815 30.6618C39.6732 30.5782 39.6485 30.2817 39.5333 30.0519C39.0186 29.0369 36.9227 29.6593 36.5192 28.7989C36.3668 28.4731 36.5686 28.047 36.9062 27.1657C37.1739 26.464 37.4951 26.3721 38.1662 26.6018C40.9785 27.5667 43.7826 27.4455 46.4755 26.2092C51.433 23.9327 56.3618 21.5853 61.2946 19.2421C61.8093 18.9998 62.1387 19.0165 62.5422 19.4426C63.7363 20.6998 65.1775 22.7883 66.3098 23.2811C67.9116 23.9787 70.7897 22.4499 71.0121 20.8794C71.3209 18.674 66.4498 16.1804 65.2104 14.873L65.194 14.8855ZM9.25676 32.0193C8.52383 32.0109 7.9309 31.4178 7.92266 30.6868C7.91443 29.9433 8.56912 29.3126 9.31852 29.3419C9.99792 29.3711 10.562 29.9726 10.562 30.6701C10.562 31.4094 9.96498 32.0234 9.25676 32.0151V32.0193ZM21.0371 41.4716C21.0701 42.3321 18.4678 45.0763 17.0143 47.0562C17.0143 47.0562 15.0543 49.7252 13.4484 51.6216C13.3126 51.7845 12.9667 52.1771 12.4108 52.3818C12.1308 52.482 11.8302 52.5196 11.4844 52.4904C10.7185 52.4277 9.94439 52.4904 9.17441 52.4737C8.81206 52.4653 8.61442 52.4319 8.54853 52.3066C8.42501 52.0685 8.70088 51.6592 8.78324 51.5297C9.64793 50.1972 13.4279 43.038 13.9549 41.7055C14.0002 41.5844 14.1402 41.221 14.4778 40.9788C14.8567 40.7073 15.2808 40.7407 15.4743 40.7532C16.6725 40.8326 19.9583 40.7783 20.3371 40.7657C20.4277 40.7657 20.6748 40.7532 20.8477 40.9286C20.8477 40.9286 21.0248 41.1041 21.0371 41.48V41.4716Z" fill="#1F9F3A"/>
<path d="M56.4813 33.896V37.4338H52.022V52.4958H48.4109V37.4338H44.1245V33.896H56.4813Z" fill="#1F9F3A"/>
<path d="M69.0399 48.8577H62.9624L61.4677 52.4958H57.906L66.1782 33.165H66.3759L74.648 52.4958H70.4646L69.044 48.8577H69.0399ZM67.8458 45.7752L66.0753 41.2516L64.2306 45.7752H67.8417H67.8458Z" fill="#1F9F3A"/>
<path d="M89.006 44.472C89.5454 45.2029 89.8172 46.0508 89.8172 47.0115C89.8172 48.8995 89.2078 50.2821 87.9849 51.1676C86.7661 52.0531 85.2385 52.4958 83.4144 52.4958H77.3121V33.896H82.6938C84.6373 33.896 86.1649 34.297 87.2767 35.0948C88.3884 35.8967 88.9443 37.0537 88.9443 38.57C88.9443 39.4972 88.7549 40.3117 88.3719 41.0093C87.989 41.7068 87.4496 42.2707 86.7537 42.6884C87.7172 43.1437 88.4666 43.7368 89.0102 44.472H89.006ZM80.9232 41.5022H83.1138C83.7767 41.5022 84.2914 41.2975 84.6579 40.884C85.0243 40.4705 85.2055 39.9609 85.2055 39.3552C85.2055 38.7496 84.9996 38.2567 84.5838 37.9267C84.1679 37.5967 83.5955 37.4338 82.8667 37.4338H80.9232V41.5022ZM85.2961 48.5653C85.819 48.2187 86.0826 47.7007 86.0826 47.0115C86.0826 45.6958 85.0532 45.04 82.9944 45.04H80.9274V49.0833H83.2456C84.0938 49.0833 84.7773 48.912 85.3002 48.5653H85.2961Z" fill="#1F9F3A"/>
<path d="M105.122 44.472C105.662 45.2029 105.933 46.0508 105.933 47.0115C105.933 48.8995 105.324 50.2821 104.101 51.1676C102.882 52.0531 101.355 52.4958 99.5305 52.4958H93.4282V33.896H98.8099C100.753 33.896 102.281 34.297 103.393 35.0948C104.504 35.8967 105.06 37.0537 105.06 38.57C105.06 39.4972 104.871 40.3117 104.488 41.0093C104.105 41.7068 103.566 42.2707 102.87 42.6884C103.833 43.1437 104.583 43.7368 105.126 44.472H105.122ZM97.0393 41.5022H99.2299C99.8928 41.5022 100.408 41.2975 100.774 40.884C101.14 40.4705 101.322 39.9609 101.322 39.3552C101.322 38.7496 101.116 38.2567 100.7 37.9267C100.284 37.5967 99.7116 37.4338 98.9828 37.4338H97.0393V41.5022ZM101.412 48.5653C101.935 48.2187 102.199 47.7007 102.199 47.0115C102.199 45.6958 101.169 45.04 99.1105 45.04H97.0435V49.0833H99.3616C100.21 49.0833 100.893 48.912 101.416 48.5653H101.412Z" fill="#1F9F3A"/>
<path d="M113.156 33.896V52.4958H109.544V33.896H113.156Z" fill="#1F9F3A"/>
<path d="M129 33.896V37.4338H124.541V52.4958H120.929V37.4338H116.643V33.896H129Z" fill="#1F9F3A"/>
</svg>
